<mxfile host="app.diagrams.net" modified="2020-08-10T06:04:35.065Z" agent="5.0 (Macintosh; Intel Mac OS X 10_15_4) AppleWebKit/605.1.15 (KHTML, like Gecko) Version/13.1 Safari/605.1.15" etag="XFyiUFMGqOUGRAx621-W" version="13.6.2" type="github" pages="3">
  <diagram id="UhjGUN7RDY3yUojf0XT2" name="Page-1">
    <mxGraphModel dx="830" dy="538" grid="1" gridSize="10" guides="1" tooltips="1" connect="1" arrows="1" fold="1" page="1" pageScale="1" pageWidth="827" pageHeight="1169" math="0" shadow="0">
      <root>
        <mxCell id="0" />
        <mxCell id="1" parent="0" />
        <mxCell id="G7wrZLIcwyHDuWY7X-IR-1" value="" style="ellipse;whiteSpace=wrap;html=1;fillColor=#d5e8d4;strokeColor=#82b366;" vertex="1" parent="1">
          <mxGeometry x="320" y="150" width="120" height="80" as="geometry" />
        </mxCell>
      </root>
    </mxGraphModel>
  </diagram>
  <diagram id="NxAyk2fjhMs5fxujgncL" name="Page-2">
    <mxGraphModel dx="830" dy="538" grid="1" gridSize="10" guides="1" tooltips="1" connect="1" arrows="1" fold="1" page="1" pageScale="1" pageWidth="827" pageHeight="1169" math="0" shadow="0">
      <root>
        <mxCell id="qsWHG9_141plWn6UW4Po-0" />
        <mxCell id="qsWHG9_141plWn6UW4Po-1" parent="qsWHG9_141plWn6UW4Po-0" />
      </root>
    </mxGraphModel>
  </diagram>
  <diagram id="NB8LOehjz8_XLhofEIVw" name="Page-3">
    <mxGraphModel dx="830" dy="538" grid="1" gridSize="10" guides="1" tooltips="1" connect="1" arrows="1" fold="1" page="1" pageScale="1" pageWidth="827" pageHeight="1169" math="0" shadow="0">
      <root>
        <mxCell id="YZq90UGDlWIYi7pAMlZh-0" />
        <mxCell id="YZq90UGDlWIYi7pAMlZh-1" parent="YZq90UGDlWIYi7pAMlZh-0" />
        <mxCell id="YZq90UGDlWIYi7pAMlZh-2" value="" style="rounded=1;whiteSpace=wrap;html=1;fillColor=#d5e8d4;strokeColor=#82b366;" vertex="1" parent="YZq90UGDlWIYi7pAMlZh-1">
          <mxGeometry x="294" y="300" width="120" height="60" as="geometry" />
        </mxCell>
      </root>
    </mxGraphModel>
  </diagram>
</mxfile>
